# xmcd
#
# Track frame offsets:
#	150
#	13123
#	38832
#	56738
#	66723
#	84929
#	98621
#	115061
#	132331
#
# Disc length: 1990 seconds
#
# Revision: 1
# Processed by: cddbd v1.5.2PL0 Copyright (c) Steve Scherf et al.
# Submitted via: audiograbber 1.83.01
#
DISCID=7507c409
DTITLE=King of Stones - Demonstrative
DYEAR=1900
DGENRE=Pop
TTITLE0=King of Stones - Around and around
TTITLE1=King of Stones - Like a rolling stone
TTITLE2=King of Stones - It's all over now
TTITLE3=King of Stones - Love stinks
TTITLE4=King of Stones - Rock and roll music
TTITLE5=King of Stones - You can make it if you try
TTITLE6=King of Stones - Stadsrechten voor Beverwijk
TTITLE7=King of Stones - Jij alleen
TTITLE8=King of Stones - De School
EXTD=
EXTT0=
EXTT1=
EXTT2=
EXTT3=
EXTT4=
EXTT5=
EXTT6=
EXTT7=
EXTT8=
PLAYORDER=
